REM DIRINDEX 1\2,1\4,1\5,1\6,1\7,1\3\8,1\3\9,1\3\10
REM DIRNAME cjc113,folder01,folder02,folder03,folder04,folder05,folder06,folder07,folder08,folder09
TITLE ""
FILE "DB4500_5th_5C_16.mp3" MP3
  TRACK 01 AUDIO
    TITLE "8:cjc113_3954"
    INDEX 01 00:00:00
  TRACK 02 AUDIO
    TITLE "0:"
    INDEX 01 00:01:24
  TRACK 03 AUDIO
    TITLE "9:cjc113_3955"
    INDEX 01 00:01:30
  TRACK 04 AUDIO
    TITLE "0:"
    INDEX 01 00:02:43
  TRACK 05 AUDIO
    TITLE "10:cjc113_3956"
    INDEX 01 00:02:51
  TRACK 06 AUDIO
    TITLE "0:"
    INDEX 01 00:05:44
  TRACK 07 AUDIO
    TITLE "8:cjc113_3957"
    INDEX 01 00:06:04
  TRACK 08 AUDIO
    TITLE "0:"
    INDEX 01 00:07:29
  TRACK 09 AUDIO
    TITLE "9:cjc113_3958"
    INDEX 01 00:07:41
  TRACK 10 AUDIO
    TITLE "0:"
    INDEX 01 00:08:66
  TRACK 11 AUDIO
    TITLE "10:cjc113_3959"
    INDEX 01 00:09:02
  TRACK 12 AUDIO
    TITLE "0:"
    INDEX 01 00:12:48
  TRACK 13 AUDIO
    TITLE "8:cjc113_3960"
    INDEX 01 00:13:04
  TRACK 14 AUDIO
    TITLE "0:"
    INDEX 01 00:14:09
  TRACK 15 AUDIO
    TITLE "9:cjc113_3961"
    INDEX 01 00:14:15
  TRACK 16 AUDIO
    TITLE "0:"
    INDEX 01 00:15:27
  TRACK 17 AUDIO
    TITLE "10:cjc113_3962"
    INDEX 01 00:15:32
  TRACK 18 AUDIO
    TITLE "0:"
    INDEX 01 00:17:45
  TRACK 19 AUDIO
    TITLE "8:cjc113_3963"
    INDEX 01 00:18:01
  TRACK 20 AUDIO
    TITLE "0:"
    INDEX 01 00:19:16
  TRACK 21 AUDIO
    TITLE "9:cjc113_3964"
    INDEX 01 00:19:26
  TRACK 22 AUDIO
    TITLE "0:"
    INDEX 01 00:20:49
  TRACK 23 AUDIO
    TITLE "10:cjc113_3965"
    INDEX 01 00:20:55
  TRACK 24 AUDIO
    TITLE "0:"
    INDEX 01 00:24:00
  TRACK 25 AUDIO
    TITLE "8:cjc113_3966"
    INDEX 01 00:24:35
  TRACK 26 AUDIO
    TITLE "0:"
    INDEX 01 00:25:39
  TRACK 27 AUDIO
    TITLE "9:cjc113_3967"
    INDEX 01 00:25:46
  TRACK 28 AUDIO
    TITLE "0:"
    INDEX 01 00:26:56
  TRACK 29 AUDIO
    TITLE "10:cjc113_3968"
    INDEX 01 00:26:66
  TRACK 30 AUDIO
    TITLE "0:"
    INDEX 01 00:30:54
  TRACK 31 AUDIO
    TITLE "8:cjc113_3969"
    INDEX 01 00:31:10
  TRACK 32 AUDIO
    TITLE "0:"
    INDEX 01 00:32:27
  TRACK 33 AUDIO
    TITLE "9:cjc113_3970"
    INDEX 01 00:32:37
  TRACK 34 AUDIO
    TITLE "0:"
    INDEX 01 00:33:54
  TRACK 35 AUDIO
    TITLE "10:cjc113_3971"
    INDEX 01 00:33:62
  TRACK 36 AUDIO
    TITLE "0:"
    INDEX 01 00:36:66
  TRACK 37 AUDIO
    TITLE "8:cjc113_3972"
    INDEX 01 00:37:22
  TRACK 38 AUDIO
    TITLE "0:"
    INDEX 01 00:38:31
  TRACK 39 AUDIO
    TITLE "9:cjc113_3973"
    INDEX 01 00:38:35
  TRACK 40 AUDIO
    TITLE "0:"
    INDEX 01 00:39:66
  TRACK 41 AUDIO
    TITLE "10:cjc113_3974"
    INDEX 01 00:39:74
  TRACK 42 AUDIO
    TITLE "0:"
    INDEX 01 00:42:45
  TRACK 43 AUDIO
    TITLE "8:cjc113_3975"
    INDEX 01 00:42:74
  TRACK 44 AUDIO
    TITLE "0:"
    INDEX 01 00:44:03
  TRACK 45 AUDIO
    TITLE "9:cjc113_3976"
    INDEX 01 00:44:11
  TRACK 46 AUDIO
    TITLE "0:"
    INDEX 01 00:45:63
  TRACK 47 AUDIO
    TITLE "10:cjc113_3977"
    INDEX 01 00:45:73
  TRACK 48 AUDIO
    TITLE "0:"
    INDEX 01 00:49:51
  TRACK 49 AUDIO
    TITLE "8:cjc113_3978"
    INDEX 01 00:50:09
  TRACK 50 AUDIO
    TITLE "0:"
    INDEX 01 00:51:24
  TRACK 51 AUDIO
    TITLE "9:cjc113_3979"
    INDEX 01 00:51:32
  TRACK 52 AUDIO
    TITLE "0:"
    INDEX 01 00:52:57
  TRACK 53 AUDIO
    TITLE "10:cjc113_3980"
    INDEX 01 00:52:67
  TRACK 54 AUDIO
    TITLE "0:"
    INDEX 01 00:57:05
  TRACK 55 AUDIO
    TITLE "8:cjc113_3981"
    INDEX 01 00:57:37
  TRACK 56 AUDIO
    TITLE "0:"
    INDEX 01 00:58:67
  TRACK 57 AUDIO
    TITLE "9:cjc113_3982"
    INDEX 01 00:59:00
  TRACK 58 AUDIO
    TITLE "0:"
    INDEX 01 00:59:65
  TRACK 59 AUDIO
    TITLE "10:cjc113_3983"
    INDEX 01 01:00:00
  TRACK 60 AUDIO
    TITLE "0:"
    INDEX 01 01:03:63
  TRACK 61 AUDIO
    TITLE "8:cjc113_3984"
    INDEX 01 01:04:19
  TRACK 62 AUDIO
    TITLE "0:"
    INDEX 01 01:05:21
  TRACK 63 AUDIO
    TITLE "9:cjc113_3985"
    INDEX 01 01:05:26
  TRACK 64 AUDIO
    TITLE "0:"
    INDEX 01 01:06:55
  TRACK 65 AUDIO
    TITLE "10:cjc113_3986"
    INDEX 01 01:06:57
  TRACK 66 AUDIO
    TITLE "0:"
    INDEX 01 01:10:20
  TRACK 67 AUDIO
    TITLE "8:cjc113_3987"
    INDEX 01 01:10:53
  TRACK 68 AUDIO
    TITLE "0:"
    INDEX 01 01:11:72
  TRACK 69 AUDIO
    TITLE "9:cjc113_3988"
    INDEX 01 01:12:07
  TRACK 70 AUDIO
    TITLE "0:"
    INDEX 01 01:13:30
  TRACK 71 AUDIO
    TITLE "10:cjc113_3989"
    INDEX 01 01:13:40
  TRACK 72 AUDIO
    TITLE "0:"
    INDEX 01 01:17:30
